<svg xmlns="http://www.w3.org/2000/svg" width="800" height="520" viewBox="0 0 800 520">
  <defs>
    <linearGradient id="bgGrad" x1="0%" y1="0%" x2="100%" y2="100%">
      <stop offset="0%" style="stop-color:#f0ebe8;stop-opacity:1" />
      <stop offset="100%" style="stop-color:#e8e0dd;stop-opacity:1" />
    </linearGradient>
  </defs>

  <!-- Fondo -->
  <rect width="800" height="520" fill="url(#bgGrad)" />

  <!-- Silueta edificio centro -->
  <rect x="300" y="180" width="200" height="220" rx="4" fill="#d4c9c4" />
  <!-- Ventanas edificio centro -->
  <rect x="320" y="200" width="30" height="30" rx="2" fill="#b8aba4" />
  <rect x="365" y="200" width="30" height="30" rx="2" fill="#b8aba4" />
  <rect x="410" y="200" width="30" height="30" rx="2" fill="#b8aba4" />
  <rect x="320" y="245" width="30" height="30" rx="2" fill="#c9bdb7" />
  <rect x="365" y="245" width="30" height="30" rx="2" fill="#b8aba4" />
  <rect x="410" y="245" width="30" height="30" rx="2" fill="#c9bdb7" />
  <rect x="320" y="290" width="30" height="30" rx="2" fill="#b8aba4" />
  <rect x="365" y="290" width="30" height="30" rx="2" fill="#c9bdb7" />
  <rect x="410" y="290" width="30" height="30" rx="2" fill="#b8aba4" />
  <!-- Puerta -->
  <rect x="370" y="350" width="60" height="50" rx="3" fill="#a89890" />

  <!-- Edificio izquierda -->
  <rect x="160" y="230" width="130" height="170" rx="4" fill="#c9bdb7" />
  <rect x="178" y="248" width="25" height="25" rx="2" fill="#b8aba4" />
  <rect x="218" y="248" width="25" height="25" rx="2" fill="#c9bdb7" />
  <rect x="258" y="248" width="25" height="25" rx="2" fill="#b8aba4" />
  <rect x="178" y="288" width="25" height="25" rx="2" fill="#c9bdb7" />
  <rect x="218" y="288" width="25" height="25" rx="2" fill="#c9bdb7" />
  <rect x="258" y="288" width="25" height="25" rx="2" fill="#c9bdb7" />

  <!-- Edificio derecha -->
  <rect x="510" y="210" width="130" height="190" rx="4" fill="#c9bdb7" />
  <rect x="528" y="228" width="25" height="25" rx="2" fill="#b8aba4" />
  <rect x="568" y="228" width="25" height="25" rx="2" fill="#c9bdb7" />
  <rect x="608" y="228" width="25" height="25" rx="2" fill="#c9bdb7" />
  <rect x="528" y="268" width="25" height="25" rx="2" fill="#c9bdb7" />
  <rect x="568" y="268" width="25" height="25" rx="2" fill="#b8aba4" />
  <rect x="608" y="268" width="25" height="25" rx="2" fill="#c9bdb7" />

  <!-- Suelo -->
  <rect x="0" y="400" width="800" height="120" fill="#ccc1bb" />

  <!-- Ícono casa (centro-inferior decorativo) -->
  <g transform="translate(360, 430) scale(1)">
    <polygon points="40,-15 80,20 80,55 0,55 0,20" fill="#800020" opacity="0.25" />
    <polygon points="40,-25 -5,20 85,20" fill="#800020" opacity="0.35" />
  </g>

  <!-- Texto -->
  <text x="400" y="460" text-anchor="middle" font-family="Georgia, serif" font-size="14" fill="#800020" opacity="0.8" font-style="italic">Foto no disponible · Buen Futuro</text>
</svg>