<svg xmlns="http://www.w3.org/2000/svg" viewBox="0 0 800 600" fill="none">
  <rect width="800" height="600" fill="#F9F9F9"/>
  <pattern id="grid" width="40" height="40" patternUnits="userSpaceOnUse">
    <path d="M 40 0 L 0 0 0 40" fill="none" stroke="#E8E0E3" stroke-width="1"/>
  </pattern>
  <rect width="800" height="600" fill="url(#grid)"/>
  <g transform="translate(160, 120)">
    <rect x="100" y="120" width="280" height="260" fill="#D4C4C8" rx="4"/>
    <rect x="160" y="60" width="160" height="320" fill="#C0A8B0" rx="4"/>
    <rect x="140" y="55" width="200" height="12" fill="#800020" rx="2"/>
    <rect x="120" y="145" width="30" height="30" fill="#800020" opacity="0.6" rx="2"/>
    <rect x="165" y="145" width="30" height="30" fill="#800020" opacity="0.4" rx="2"/>
    <rect x="210" y="145" width="30" height="30" fill="#800020" opacity="0.6" rx="2"/>
    <rect x="255" y="145" width="30" height="30" fill="#800020" opacity="0.4" rx="2"/>
    <rect x="300" y="145" width="30" height="30" fill="#800020" opacity="0.6" rx="2"/>
    <rect x="120" y="195" width="30" height="30" fill="#800020" opacity="0.4" rx="2"/>
    <rect x="165" y="195" width="30" height="30" fill="#800020" opacity="0.6" rx="2"/>
    <rect x="210" y="195" width="30" height="30" fill="#800020" opacity="0.4" rx="2"/>
    <rect x="255" y="195" width="30" height="30" fill="#800020" opacity="0.6" rx="2"/>
    <rect x="300" y="195" width="30" height="30" fill="#800020" opacity="0.4" rx="2"/>
    <rect x="120" y="245" width="30" height="30" fill="#800020" opacity="0.6" rx="2"/>
    <rect x="165" y="245" width="30" height="30" fill="#800020" opacity="0.4" rx="2"/>
    <rect x="210" y="245" width="30" height="30" fill="#800020" opacity="0.6" rx="2"/>
    <rect x="255" y="245" width="30" height="30" fill="#800020" opacity="0.4" rx="2"/>
    <rect x="300" y="245" width="30" height="30" fill="#800020" opacity="0.6" rx="2"/>
    <rect x="175" y="80" width="25" height="25" fill="#800020" opacity="0.5" rx="2"/>
    <rect x="215" y="80" width="25" height="25" fill="#800020" opacity="0.5" rx="2"/>
    <rect x="255" y="80" width="25" height="25" fill="#800020" opacity="0.5" rx="2"/>
    <rect x="200" y="330" width="80" height="50" fill="#800020" opacity="0.7" rx="4"/>
    <circle cx="275" cy="355" r="4" fill="#F9F9F9" opacity="0.8"/>
    <rect x="60" y="380" width="360" height="4" fill="#800020" opacity="0.3" rx="2"/>
  </g>
  <rect x="0" y="0" width="800" height="8" fill="#800020"/>
  <rect x="280" y="460" width="240" height="72" fill="#800020" rx="8"/>
  <text x="400" y="491" font-family="Georgia, serif" font-size="22" font-weight="bold" fill="white" text-anchor="middle" letter-spacing="2">BUEN FUTURO</text>
  <text x="400" y="516" font-family="Arial, sans-serif" font-size="11" fill="rgba(255,255,255,0.75)" text-anchor="middle" letter-spacing="3">FOTOGRAFIAS EN PROCESO</text>
  <circle cx="760" cy="40" r="60" fill="#800020" opacity="0.08"/>
  <circle cx="40" cy="560" r="60" fill="#800020" opacity="0.08"/>
</svg>